<svg width="100" height="24" viewBox="0 0 100 24">
  <path d="M39.035 20.9709L33.169 5.25439H36.0467L40.2304 17.1193H40.2525L44.4141 5.25439H47.2696L41.4036 20.9709H39.035Z" />
  <path d="M51.7989 8.08781C51.4743 8.41246 51.0832 8.5748 50.6256 8.5748C50.1682 8.5748 49.7771 8.41246 49.4524 8.08781C49.1279 7.76315 48.9655 7.37208 48.9655 6.91461C48.9655 6.47189 49.1279 6.08819 49.4524 5.76354C49.7771 5.43888 50.1682 5.27655 50.6256 5.27655C51.0832 5.27655 51.4743 5.43888 51.7989 5.76354C52.1383 6.08819 52.308 6.47189 52.308 6.91461C52.308 7.37208 52.1383 7.76315 51.7989 8.08781ZM49.386 20.9709V10.1686H51.8653V20.9709H49.386Z" />
  <path d="M59.8445 21.148C58.3244 21.148 57.0701 20.6388 56.0814 19.6206C55.0926 18.6023 54.5983 17.2668 54.5983 15.614C54.5983 13.9907 55.0926 12.6551 56.0814 11.6074C57.0848 10.5449 58.3319 10.0136 59.8223 10.0136C61.2981 10.0136 62.4492 10.508 63.2755 11.4967H63.2977V4.67883H65.7548V20.9709H63.3862V19.5099H63.3641C62.5229 20.6019 61.3497 21.148 59.8445 21.148ZM57.9851 17.9825C58.5754 18.5875 59.3206 18.8901 60.2208 18.8901C61.121 18.8901 61.8736 18.5875 62.4787 17.9825C63.0837 17.3775 63.3862 16.5953 63.3862 15.6361C63.3862 14.6621 63.0911 13.8579 62.5008 13.2233C61.9105 12.574 61.1578 12.2493 60.2429 12.2493C59.3575 12.2493 58.6122 12.5592 58.0072 13.179C57.4169 13.7988 57.1218 14.6179 57.1218 15.6361C57.1218 16.5953 57.4095 17.3775 57.9851 17.9825Z" />
  <path d="M78.8618 15.4369C78.8618 15.7173 78.8397 16.0345 78.7954 16.3887H70.915C71.0773 17.1708 71.4315 17.7833 71.9775 18.226C72.5383 18.6687 73.2393 18.8901 74.0804 18.8901C75.2167 18.8901 76.1243 18.4695 76.8032 17.6283L78.5298 19.1114C77.482 20.469 75.9546 21.1479 73.9476 21.1479C72.2948 21.1479 70.9445 20.6388 69.8967 19.6205C68.8637 18.6023 68.3472 17.252 68.3472 15.5697C68.3472 13.9168 68.849 12.5813 69.8525 11.5631C70.8707 10.5301 72.1767 10.0135 73.7705 10.0135C75.2758 10.0135 76.5006 10.5227 77.4451 11.5409C78.3896 12.5592 78.8618 13.8579 78.8618 15.4369ZM75.4529 12.8469C75.0101 12.4485 74.442 12.2493 73.7484 12.2493C73.0548 12.2493 72.4572 12.4412 71.9554 12.8248C71.4684 13.2085 71.1364 13.7472 70.9593 14.4407H76.3604C76.1981 13.7619 75.8956 13.2306 75.4529 12.8469Z" />
  <path d="M81.4191 20.9708V10.1685H83.8984V11.7844H83.9426C84.8281 10.6038 85.9422 10.0135 87.2852 10.0135H87.5951V12.7805C87.2113 12.7511 86.9604 12.7363 86.8424 12.7363C85.9274 12.7363 85.2044 13.0314 84.6731 13.6217C84.1565 14.1972 83.8984 14.9425 83.8984 15.8574V20.9708H81.4191Z" />
  <path d="M99.2251 15.4369C99.2251 15.7173 99.2029 16.0345 99.1587 16.3887H91.2783C91.4407 17.1708 91.7949 17.7833 92.3408 18.226C92.9017 18.6687 93.6026 18.8901 94.4437 18.8901C95.5801 18.8901 96.4877 18.4695 97.1664 17.6283L98.893 19.1114C97.8453 20.469 96.3179 21.1479 94.3109 21.1479C92.6582 21.1479 91.3079 20.6388 90.26 19.6205C89.2271 18.6023 88.7105 17.252 88.7105 15.5697C88.7105 13.9168 89.2123 12.5813 90.2158 11.5631C91.234 10.5301 92.54 10.0135 94.1338 10.0135C95.6391 10.0135 96.864 10.5227 97.8084 11.5409C98.7529 12.5592 99.2251 13.8579 99.2251 15.4369ZM95.8161 12.8469C95.3734 12.4485 94.8053 12.2493 94.1117 12.2493C93.4181 12.2493 92.8204 12.4412 92.3187 12.8248C91.8317 13.2085 91.4996 13.7472 91.3225 14.4407H96.7237C96.5614 13.7619 96.2589 13.2306 95.8161 12.8469Z" />
  <path d="M18.5242 0L16.5437 3.49515H21.6116L15.4951 13.8641L17.5922 17.3592L27.7281 0H18.5242Z" fill-opacity="0.6" />
  <path d="M11.534 0L13.5146 3.49515H6.05825L15.8447 20.5049L13.7476 24L0 0H11.534Z" />
</svg>
